<?xml version="1.0" encoding="utf-8"?>
<!-- Generator: Adobe Illustrator 28.4.1, SVG Export Plug-In . SVG Version: 6.00 Build 0)  -->
<svg version="1.1" id="Capa_2" xmlns="http://www.w3.org/2000/svg" xmlns:xlink="http://www.w3.org/1999/xlink" x="0px" y="0px"
	 viewBox="0 0 1311.1 505.9" style="enable-background:new 0 0 1311.1 505.9;" xml:space="preserve">
<style type="text/css">
	.st0{fill:none;stroke:#1D1D1B;stroke-width:15;stroke-miterlimit:10;}
	.st1{fill:#373735;}
	.st2{fill:none;stroke:#1D1D1B;stroke-width:15;stroke-linecap:round;stroke-linejoin:round;stroke-miterlimit:10;}
	.st3{fill:none;stroke:#000000;stroke-width:15;stroke-linecap:round;stroke-miterlimit:10;}
	.st4{fill:#1D1D1D;}
	.st5{fill:none;stroke:#1D1D1B;stroke-width:4;stroke-miterlimit:10;}
	.st6{fill:#09073E;}
	.st7{fill:#3C25EC;}
	.st8{fill:#12D0E6;}
	.st9{fill:#7923EF;}
	.st10{fill-rule:evenodd;clip-rule:evenodd;fill:#1D1D1B;}
	.st11{fill-rule:evenodd;clip-rule:evenodd;fill:#FFFFFF;}
	.st12{fill-rule:evenodd;clip-rule:evenodd;}
	.st13{fill:#8C66E8;}
	.st14{fill:#7D53E5;}
	.st15{fill:#FFFFFF;}
	.st16{fill:#EF555B;}
	.st17{fill:none;stroke:#1D1D1B;stroke-width:18;stroke-miterlimit:10;}
	.st18{fill:none;stroke:#1D1D1B;stroke-width:20;stroke-miterlimit:10;}
</style>
<path class="st3" d="M776.4,10.1C590,7.7,403.3,37.3,226.9,97.2c-79.7,27.1-163.6,65.9-201.4,141.2c-10.7,21.4-17.2,45.4-15,69.2
	c4,43.5,35.8,79.6,71.2,105.2c57.4,41.3,126.9,63,196.9,73.1c70,10.1,141,9.3,211.7,9.5c209.1,0.6,424.4,9.3,620.2-64
	c49.2-18.4,97.4-42.5,134.3-79.8s61.3-89.7,55.4-141.8c-6.4-57-48.1-105.5-98.3-133.2c-50.2-27.7-108.3-37.3-165.5-42.5
	c-140.3-12.7-283.1-0.7-418.6,37.8"/>
</svg>
