<?xml version="1.0" encoding="UTF-8"?>
<svg id="Capa_2" xmlns="http://www.w3.org/2000/svg" version="1.1" viewBox="0 0 1104.8 808.5">
  <!-- Generator: Adobe Illustrator 29.8.5, SVG Export Plug-In . SVG Version: 2.1.1 Build 2)  -->
  <defs>
    <style>
      .st0 {
        fill: none;
        stroke: #1d1d1b;
        stroke-miterlimit: 10;
        stroke-width: 4px;
      }
    </style>
  </defs>
  <path class="st0" d="M1104.8,572.5c-54.8,63.6-126.2,95.3-178.5,114.9-53.5,20-126.8,37.5-181.4,26.8-115.6-21.4-210.3-74.9-278.8-124.7-68.5-49.8-85.1-121.5-85.1-148.7V150.2c0-48.2,27.3-63.7,50.3-63.7h256.3c65.3,0,63.1,33.2,63.1,58.9v506.2c0,48.7-42.8,53-56.7,53s-217.2.5-260,.5-50.8-35.3-50.8-57.8v-93.1c0-35.3-5.4-57.2-13.4-80.3-8-23-14.1-52.4-14.1-83.5V69.5c0-48.2,23.2-61.4,59.6-61.4s154.8-3.2,185.1-3.2,29.6,4.3,29.6,11.1v32.8c0,16.8-18.9,14.6-64.9,14.6s-57.8,0-57.8-6.4,0-12.5,7.8-12.5h82.4c16.4,0,24.3-.7,24.3,8.6s-1.8,15-10.7,15h-98.8c-20.7,0-15.7-15.7-15.7-31s1.8-24.6,17.1-24.6h199.4c55.3,0,69.2,29.1,69.2,69.2v649.5c0,67.4-41.7,71.2-108.1,71.2s-159.4,6.9-159.4-14.5,41.7-17.8,55.6-17.8,52.4,0,52.4,15.2-18.7,17.1-47.6,17.1h-176.6c-72.2,0-48.2-122-48.2-211.9s-6.4-118.8-53-226.3C255.5,266.6,85.7,187.5,0,180.1"/>
</svg>