<?xml version="1.0" encoding="UTF-8"?>
<svg id="Capa_2" xmlns="http://www.w3.org/2000/svg" version="1.1" viewBox="0 0 1104.8 808.5">
  <!-- Generator: Adobe Illustrator 29.8.5, SVG Export Plug-In . SVG Version: 2.1.1 Build 2)  -->
  <defs>
    <style>
      .st0 {
        fill: none;
        stroke: #1d1d1b;
        stroke-miterlimit: 10;
        stroke-width: 4px;
      }
    </style>
  </defs>
  <path class="st0" d="M36.9,802.4s24.5,8.9,96-18.1c71.5-27.1,111.8,1,172.6,9.7,60.8,8.7,164.9,17.7,273.2,8.8,108.3-8.8,244.3-10.4,236.1-26.2s-179.9-11.2-272.9-12.3c-92.9-1-150.7-24.3-181.9-28.3-31.1-4.1-51.6,12.5-27.1,26.7,24.5,14.2,61.3,3,60.3-20.5s-3.8-46.2,6.1-53.6c12-8.9,85.5-19.7,110-27.8,10.2-3.6,8.7-9.7-26.6-11.2-35.2-1.5-188.6,0-301.4,4.6-112.9,4.6-159.6,1.5-162.7-36.3-3.1-37.8-10.2-311.1-12.3-376.5C4.5,176-1,41.2,4.1,28.3,9.2,15.3,18.2,8.5,63.5,6.5c45.3-2,625.2-8.9,878.7,0,100.3,5.1,144-10.2,152.5,64.9,8.4,75.1,10,449.6,6.1,496.3-3.8,46.7,12.3,82.6-71.2,83.4-83.5.8-290.3,11.5-331.7-6.1-41.4-17.6-82.7-35.6-108.8-35.6s-36,20.7-19.1,34.5c13.1,10.8,41.4-20.9,9.8-41.4-41.3-26.8-203.3-4.1-277.6-7.1-74.3-3.1-205.6,5.4-224-19.9-18.4-25.3-23.7-98.8-23.7-235.1s-10.7-260.4,13.8-280.3c24.5-19.9,274.6-22.2,479.9-22.2s483.4-19.1,493.4,43.7c10,62.8,6.9,356.4,6.1,392.3-.8,35.9,16.1,101.7-46.2,102.8-62.3,1-313.2-6.4-341.8,21.2-28.6,27.6-5.6,139.3,68.9,133.1,74.6-6.1,151.1-9.7,210.4,38.3,43.2,35,106.9,26,157.7,15.4"/>
</svg>